#!OML:ASF H:\Dans Jumps\Project 1\Capture day 1\Session 1\subject.ASF
:FULLY-SPECIFIED
:DEGREES
425
root 0.386629 17.7203 -2.46051 6.62886 -1.65922 -1.074
lowerback -0.429183 -0.182466 -0.553199
upperback 4.07561 -0.274951 1.20617
thorax 4.44819 -0.182719 1.54281
lowerneck -12.3523 0.499361 -2.09957
upperneck 36.2445 0.885196 1.17967
head 14.5232 0.242832 0.994997
rclavicle -2.33572e-015 -3.77691e-015
rhumerus -21.3884 -10.7322 -83.8167
rradius 24.548
rwrist 31.0207
rhand -18.5601 -25.8531
rfingers 7.12502
rthumb 7.72974 -55.6918
lclavicle -2.33572e-015 -3.77691e-015
lhumerus -18.5452 -3.08099 88.6407
lradius 18.3392
lwrist 5.06852
lhand -26.1355 -4.05566
lfingers 7.12502
lthumb 0.414905 25.9237
rfemur -16.1263 -0.283736 18.5228
rtibia 23.9682
rfoot -13.0141 1.12757
rtoes 13.826
lfemur -13.8321 6.6932 -17.7026
ltibia 20.5401
lfoot -9.55011 6.78206
ltoes 1.94269
426
root 0.386661 17.7201 -2.46262 6.61916 -1.63979 -1.07237
lowerback -0.438414 -0.182 -0.542557
upperback 4.07301 -0.274656 1.20752
thorax 4.45065 -0.182201 1.53823
lowerneck -12.3503 0.503086 -2.09121
upperneck 36.2625 0.893221 1.1674
head 14.5312 0.245707 0.989961
rclavicle 6.4605e-016 4.17448e-015
rhumerus -21.4227 -10.789 -83.7906
rradius 24.5366
rwrist 31.0563
rhand -18.5505 -25.8584
rfingers 7.12502
rthumb 7.73903 -55.6968
lclavicle 6.4605e-016 4.17448e-015
lhumerus -18.6058 -3.01732 88.6358
lradius 18.2964
lwrist 5.00583
lhand -26.1287 -4.06
lfingers 7.12502
lthumb 0.421415 25.9193
rfemur -16.119 -0.280603 18.5207
rtibia 23.9664
rfoot -13.0114 1.10326
rtoes 13.8163
lfemur -13.8342 6.69211 -17.7038
ltibia 20.5415
lfoot -9.54554 6.76355
ltoes 1.92487
427
root 0.386675 17.7198 -2.46474 6.60936 -1.61962 -1.07324
lowerback -0.446045 -0.181459 -0.530067
upperback 4.0685 -0.274341 1.20994
thorax 4.45021 -0.181601 1.53371
lowerneck -12.3443 0.506381 -2.07935
upperneck 36.2816 0.900961 1.15117
head 14.5389 0.248397 0.982608
rclavicle -1.2921e-015 -8.15017e-015
rhumerus -21.4609 -10.8475 -83.7614
rradius 24.5271
rwrist 31.0995
rhand -18.5335 -25.8773
rfingers 7.12502
rthumb 7.75539 -55.7151
lclavicle -1.2921e-015 -8.15017e-015
lhumerus -18.6704 -2.95168 88.6305
lradius 18.258
lwrist 4.94572
lhand -26.1377 -4.08992
lfingers 7.12502
lthumb 0.412752 25.8894
rfemur -16.1106 -0.276681 18.5214
rtibia 23.963
rfoot -13.0096 1.07808
rtoes 13.8085
lfemur -13.8371 6.68993 -17.7018
ltibia 20.5451
lfoot -9.5419 6.74553
ltoes 1.90821
428
root 0.386668 17.7196 -2.46693 6.59933 -1.5993 -1.07494
lowerback -0.450449 -0.180206 -0.516508
upperback 4.06243 -0.273078 1.21199
thorax 4.44627 -0.180455 1.52827
lowerneck -12.3378 0.509103 -2.06924
upperneck 36.3023 0.906891 1.13894
head 14.5471 0.250604 0.976948
rclavicle 5.51627e-015 -1.51076e-014
rhumerus -21.4997 -10.906 -83.7329
rradius 24.5132
rwrist 31.1345
rhand -18.5036 -25.9107
rfingers 7.12502
rthumb 7.78432 -55.7474
lclavicle 5.51627e-015 -1.51076e-014
lhumerus -18.7385 -2.87702 88.6223
lradius 18.2253
lwrist 4.86942
lhand -26.1613 -4.15306
lfingers 7.12502
lthumb 0.389945 25.8263
rfemur -16.1016 -0.272213 18.5232
rtibia 23.959
rfoot -13.0083 1.05294
rtoes 13.7964
lfemur -13.8403 6.68712 -17.6985
ltibia 20.55
lfoot -9.53932 6.7276
ltoes 1.89619
429
root 0.386669 17.7193 -2.46904 6.58793 -1.58009 -1.07781
lowerback -0.454027 -0.178082 -0.501873
upperback 4.05661 -0.2707 1.21452
thorax 4.44208 -0.178726 1.52275
lowerneck -12.3284 0.509583 -2.06252
upperneck 36.3199 0.909214 1.12984
head 14.5534 0.251267 0.972556
rclavicle -6.41081e-015 6.36111e-015
rhumerus -21.5397 -10.9583 -83.7045
rradius 24.4983
rwrist 31.1581
rhand -18.483 -25.9503
rfingers 7.12502
rthumb 7.80422 -55.7863
lclavicle -6.41081e-015 6.36111e-015
lhumerus -18.8079 -2.799 88.6132
lradius 18.1985
lwrist 4.78843
lhand -26.1776 -4.19977
lfingers 7.12502
lthumb 0.374179 25.7797
rfemur -16.0907 -0.266878 18.5261
rtibia 23.955
rfoot -13.0075 1.02802
rtoes 13.7829
lfemur -13.8408 6.68438 -17.6936
ltibia 20.5546
lfoot -9.53761 6.71009
ltoes 1.89382
430
root 0.38657 17.7191 -2.47121 6.57666 -1.56316 -1.07801
lowerback -0.457894 -0.174832 -0.490745
upperback 4.05079 -0.266667 1.21566
thorax 4.43803 -0.176276 1.51784
lowerneck -12.315 0.509785 -2.05829
upperneck 36.3345 0.910155 1.12505
head 14.5572 0.251617 0.970098
rclavicle -4.22417e-015 -1.17283e-014
rhumerus -21.5789 -11.0208 -83.6747
rradius 24.4775
rwrist 31.1908
rhand -18.486 -25.9643
rfingers 7.12502
rthumb 7.80124 -55.8004
lclavicle -4.22417e-015 -1.17283e-014
lhumerus -18.8762 -2.72645 88.6031
lradius 18.1745
lwrist 4.71167
lhand -26.1896 -4.24058
lfingers 7.12502
lthumb 0.362578 25.7389
rfemur -16.0809 -0.259074 18.5263
rtibia 23.9518
rfoot -13.0068 1.00274
rtoes 13.7655
lfemur -13.8409 6.68352 -17.6913
ltibia 20.5585
lfoot -9.53716 6.6923
ltoes 1.89643
431
root 0.386445 17.7189 -2.4733 6.56495 -1.54866 -1.0757
lowerback -0.464473 -0.170284 -0.481261
upperback 4.04812 -0.260806 1.21478
thorax 4.43873 -0.172976 1.51185
lowerneck -12.3011 0.509841 -2.05535
upperneck 36.3434 0.90982 1.12413
head 14.5582 0.251832 0.969188
rclavicle 2.78299e-015 -1.31198e-014
rhumerus -21.6124 -11.0954 -83.6453
rradius 24.452
rwrist 31.2366
rhand -18.503 -25.9556
rfingers 7.12502
rthumb 7.7849 -55.7923
lclavicle 2.78299e-015 -1.31198e-014
lhumerus -18.9377 -2.66779 88.5929
lradius 18.1495
lwrist 4.64484
lhand -26.2076 -4.29572
lfingers 7.12502
lthumb 0.34526 25.6837
rfemur -16.0714 -0.251306 18.5237
rtibia 23.9497
rfoot -13.0057 0.980024
rtoes 13.7499
lfemur -13.839 6.68405 -17.6919
ltibia 20.5605
lfoot -9.53659 6.67551
ltoes 1.89556
432
root 0.386274 17.7187 -2.47545 6.55308 -1.53467 -1.07469
lowerback -0.47269 -0.166147 -0.471403
upperback 4.04736 -0.255558 1.2147
thorax 4.44239 -0.17001 1.50646
lowerneck -12.2844 0.51112 -2.05612
upperneck 36.3481 0.910963 1.12677
head 14.5565 0.25269 0.970559
rclavicle 5.11871e-015 3.77691e-015
rhumerus -21.6438 -11.1758 -83.6139
rradius 24.4274
rwrist 31.2985
rhand -18.5099 -25.9278
rfingers 7.12502
rthumb 7.77818 -55.7647
lclavicle 5.11871e-015 3.77691e-015
lhumerus -18.992 -2.61907 88.5829
lradius 18.1221
lwrist 4.59016
lhand -26.1944 -4.30182
lfingers 7.12502
lthumb 0.357973 25.6776
rfemur -16.0626 -0.243833 18.5229
rtibia 23.9486
rfoot -13.0046 0.959219
rtoes 13.7442
lfemur -13.8366 6.6882 -17.6911
ltibia 20.5606
lfoot -9.53579 6.65537
ltoes 1.89678
433
root 0.386044 17.7186 -2.4777 6.54184 -1.52113 -1.07292
lowerback -0.481128 -0.162207 -0.463541
upperback 4.04846 -0.250527 1.21445
thorax 4.44814 -0.167241 1.50201
lowerneck -12.2727 0.511876 -2.05591
upperneck 36.3514 0.911142 1.12942
head 14.5554 0.253273 0.971626
rclavicle 2.33572e-015 8.94531e-015
rhumerus -21.67 -11.2624 -83.5833
rradius 24.4002
rwrist 31.3654
rhand -18.4962 -25.8982
rfingers 7.12502
rthumb 7.79145 -55.7346
lclavicle 2.33572e-015 8.94531e-015
lhumerus -19.0356 -2.58273 88.5741
lradius 18.0868
lwrist 4.55226
lhand -26.1909 -4.33083
lfingers 7.12502
lthumb 0.361337 25.6486
rfemur -16.055 -0.236765 18.5215
rtibia 23.9471
rfoot -13.0019 0.939809
rtoes 13.7421
lfemur -13.8352 6.69379 -17.6914
ltibia 20.56
lfoot -9.53392 6.63419
ltoes 1.88663
434
root 0.385903 17.7186 -2.48004 6.5318 -1.50642 -1.07291
lowerback -0.490664 -0.158475 -0.452972
upperback 4.05141 -0.245884 1.21457
thorax 4.45643 -0.164595 1.4964
lowerneck -12.2637 0.513287 -2.05703
upperneck 36.353 0.911915 1.13435
head 14.5539 0.254256 0.973965
rclavicle 5.31749e-015 -1.11319e-014
rhumerus -21.6921 -11.3461 -83.5544
rradius 24.3747
rwrist 31.4241
rhand -18.4797 -25.8733
rfingers 7.12502
rthumb 7.80737 -55.7092
lclavicle 5.31749e-015 -1.11319e-014
lhumerus -19.0723 -2.55714 88.5668
lradius 18.0503
lwrist 4.52541
lhand -26.1836 -4.34638
lfingers 7.12502
lthumb 0.368417 25.633
rfemur -16.0481 -0.235741 18.5221
rtibia 23.9444
rfoot -12.9988 0.925808
rtoes 13.7474
lfemur -13.8353 6.69828 -17.6902
ltibia 20.559
lfoot -9.53053 6.613
ltoes 1.88011
435
root 0.385802 17.7185 -2.48245 6.52226 -1.49103 -1.07609
lowerback -0.50125 -0.1547 -0.439623
upperback 4.05619 -0.241333 1.21589
thorax 4.46724 -0.161937 1.49048
lowerneck -12.2577 0.513037 -2.05538
upperneck 36.3534 0.910345 1.13691
head 14.5528 0.254304 0.974476
rclavicle -3.47873e-016 3.57812e-015
rhumerus -21.7088 -11.4282 -83.5267
rradius 24.3491
rwrist 31.4741
rhand -18.4653 -25.86
rfingers 7.12502
rthumb 7.82123 -55.6953
lclavicle -3.47873e-016 3.57812e-015
lhumerus -19.1038 -2.53279 88.5599
lradius 18.0168
lwrist 4.50556
lhand -26.173 -4.34856
lfingers 7.12502
lthumb 0.378667 25.6309
rfemur -16.0407 -0.238101 18.526
rtibia 23.9393
rfoot -12.9944 0.916151
rtoes 13.7647
lfemur -13.8357 6.70154 -17.6857
ltibia 20.5578
lfoot -9.52685 6.59329
ltoes 1.87757
436
root 0.385767 17.7185 -2.48489 6.51323 -1.4747 -1.07807
lowerback -0.512293 -0.150661 -0.426944
upperback 4.06209 -0.236398 1.21654
thorax 4.47946 -0.15911 1.48426
lowerneck -12.2535 0.511806 -2.05418
upperneck 36.3526 0.906426 1.14236
head 14.5515 0.253691 0.975895
rclavicle -2.88238e-015 8.34896e-015
rhumerus -21.7226 -11.5001 -83.5032
rradius 24.3259
rwrist 31.5032
rhand -18.4639 -25.8613
rfingers 7.12502
rthumb 7.82256 -55.6965
lclavicle -2.88238e-015 8.34896e-015
lhumerus -19.1322 -2.49454 88.5502
lradius 17.9885
lwrist 4.47052
lhand -26.1597 -4.34382
lfingers 7.12502
lthumb 0.391544 25.6356
rfemur -16.0325 -0.246671 18.5286
rtibia 23.9319
rfoot -12.9883 0.91197
rtoes 13.7837
lfemur -13.8367 6.70233 -17.6826
ltibia 20.5564
lfoot -9.52401 6.57446
ltoes 1.88387
